<mxfile host="app.diagrams.net" modified="2022-01-02T15:14:34.894Z" agent="5.0 (Windows NT 10.0; Win64; x64) AppleWebKit/537.36 (KHTML, like Gecko) Chrome/96.0.4664.110 Safari/537.36" etag="V2mGuKsWXk-RIz22jOJE" version="15.5.4" type="github">
  <diagram id="kgpKYQtTHZ0yAKxKKP6v" name="Page-1">
    <mxGraphModel dx="1142" dy="500" grid="0" gridSize="10" guides="1" tooltips="1" connect="1" arrows="1" fold="1" page="1" pageScale="1" pageWidth="850" pageHeight="1100" math="0" shadow="0">
      <root>
        <mxCell id="0" />
        <mxCell id="1" parent="0" />
        <mxCell id="3nuBFxr9cyL0pnOWT2aG-1" value="Client" style="shape=umlLifeline;perimeter=lifelinePerimeter;container=1;collapsible=0;recursiveResize=0;rounded=0;shadow=0;strokeWidth=1;" parent="1" vertex="1">
          <mxGeometry x="116.4" y="80" width="100" height="480" as="geometry" />
        </mxCell>
        <mxCell id="3nuBFxr9cyL0pnOWT2aG-2" value="" style="points=[];perimeter=orthogonalPerimeter;rounded=0;shadow=0;strokeWidth=1;" parent="3nuBFxr9cyL0pnOWT2aG-1" vertex="1">
          <mxGeometry x="45" y="65" width="10" height="375" as="geometry" />
        </mxCell>
        <mxCell id="XEL9NCqzSd4EVeQSOwBq-10" value="báo lỗi" style="edgeStyle=orthogonalEdgeStyle;html=1;align=left;spacingLeft=2;endArrow=block;rounded=0;" edge="1" parent="3nuBFxr9cyL0pnOWT2aG-1">
          <mxGeometry x="-0.0111" relative="1" as="geometry">
            <mxPoint x="56" y="230" as="sourcePoint" />
            <Array as="points">
              <mxPoint x="86" y="230" />
              <mxPoint x="86" y="250" />
            </Array>
            <mxPoint x="55" y="250" as="targetPoint" />
            <mxPoint as="offset" />
          </mxGeometry>
        </mxCell>
        <mxCell id="XEL9NCqzSd4EVeQSOwBq-23" value="run" style="html=1;verticalAlign=bottom;endArrow=block;rounded=0;" edge="1" parent="3nuBFxr9cyL0pnOWT2aG-1" source="XEL9NCqzSd4EVeQSOwBq-22">
          <mxGeometry width="80" relative="1" as="geometry">
            <mxPoint x="-45.00000000000001" y="80" as="sourcePoint" />
            <mxPoint x="44.599999999999994" y="70" as="targetPoint" />
          </mxGeometry>
        </mxCell>
        <mxCell id="XEL9NCqzSd4EVeQSOwBq-2" value="" style="points=[];perimeter=orthogonalPerimeter;rounded=0;shadow=0;strokeWidth=1;" vertex="1" parent="3nuBFxr9cyL0pnOWT2aG-1">
          <mxGeometry x="55" y="150" width="10" height="80" as="geometry" />
        </mxCell>
        <mxCell id="XEL9NCqzSd4EVeQSOwBq-11" value="" style="points=[];perimeter=orthogonalPerimeter;rounded=0;shadow=0;strokeWidth=1;" vertex="1" parent="3nuBFxr9cyL0pnOWT2aG-1">
          <mxGeometry x="54.99999999999997" y="270" width="10" height="80" as="geometry" />
        </mxCell>
        <mxCell id="XEL9NCqzSd4EVeQSOwBq-12" value="create WaitingUI" style="edgeStyle=orthogonalEdgeStyle;html=1;align=left;spacingLeft=2;endArrow=block;rounded=0;entryX=0.36;entryY=0.971;entryDx=0;entryDy=0;entryPerimeter=0;" edge="1" parent="3nuBFxr9cyL0pnOWT2aG-1">
          <mxGeometry x="-0.0111" relative="1" as="geometry">
            <mxPoint x="56.39999999999998" y="350" as="sourcePoint" />
            <Array as="points">
              <mxPoint x="86.39999999999998" y="350" />
              <mxPoint x="86.39999999999998" y="370" />
            </Array>
            <mxPoint x="54.999999999999886" y="369.49" as="targetPoint" />
            <mxPoint as="offset" />
          </mxGeometry>
        </mxCell>
        <mxCell id="XEL9NCqzSd4EVeQSOwBq-25" value="" style="html=1;verticalAlign=bottom;endArrow=block;rounded=0;" edge="1" parent="3nuBFxr9cyL0pnOWT2aG-1">
          <mxGeometry x="0.1567" y="10" width="80" relative="1" as="geometry">
            <mxPoint x="-76.9" y="150" as="sourcePoint" />
            <mxPoint x="45" y="150" as="targetPoint" />
            <mxPoint as="offset" />
          </mxGeometry>
        </mxCell>
        <mxCell id="XEL9NCqzSd4EVeQSOwBq-26" value="input name" style="edgeLabel;html=1;align=center;verticalAlign=middle;resizable=0;points=[];" vertex="1" connectable="0" parent="XEL9NCqzSd4EVeQSOwBq-25">
          <mxGeometry x="0.158" y="6" relative="1" as="geometry">
            <mxPoint x="-20" y="-4" as="offset" />
          </mxGeometry>
        </mxCell>
        <mxCell id="XEL9NCqzSd4EVeQSOwBq-27" value="random name" style="edgeLabel;html=1;align=center;verticalAlign=middle;resizable=0;points=[];" vertex="1" connectable="0" parent="XEL9NCqzSd4EVeQSOwBq-25">
          <mxGeometry x="-0.3834" y="-9" relative="1" as="geometry">
            <mxPoint x="13" as="offset" />
          </mxGeometry>
        </mxCell>
        <mxCell id="XEL9NCqzSd4EVeQSOwBq-28" value="" style="html=1;verticalAlign=bottom;endArrow=block;rounded=0;" edge="1" parent="3nuBFxr9cyL0pnOWT2aG-1">
          <mxGeometry x="0.1567" y="10" width="80" relative="1" as="geometry">
            <mxPoint x="-76.9" y="270" as="sourcePoint" />
            <mxPoint x="44.99999999999997" y="270" as="targetPoint" />
            <mxPoint as="offset" />
          </mxGeometry>
        </mxCell>
        <mxCell id="XEL9NCqzSd4EVeQSOwBq-29" value="input name" style="edgeLabel;html=1;align=center;verticalAlign=middle;resizable=0;points=[];" vertex="1" connectable="0" parent="XEL9NCqzSd4EVeQSOwBq-28">
          <mxGeometry x="0.158" y="6" relative="1" as="geometry">
            <mxPoint x="-20" y="-4" as="offset" />
          </mxGeometry>
        </mxCell>
        <mxCell id="XEL9NCqzSd4EVeQSOwBq-30" value="random name" style="edgeLabel;html=1;align=center;verticalAlign=middle;resizable=0;points=[];" vertex="1" connectable="0" parent="XEL9NCqzSd4EVeQSOwBq-28">
          <mxGeometry x="-0.3834" y="-9" relative="1" as="geometry">
            <mxPoint x="13" as="offset" />
          </mxGeometry>
        </mxCell>
        <mxCell id="3nuBFxr9cyL0pnOWT2aG-5" value="Server" style="shape=umlLifeline;perimeter=lifelinePerimeter;container=1;collapsible=0;recursiveResize=0;rounded=0;shadow=0;strokeWidth=1;" parent="1" vertex="1">
          <mxGeometry x="440" y="80" width="100" height="480" as="geometry" />
        </mxCell>
        <mxCell id="3nuBFxr9cyL0pnOWT2aG-6" value="" style="points=[];perimeter=orthogonalPerimeter;rounded=0;shadow=0;strokeWidth=1;" parent="3nuBFxr9cyL0pnOWT2aG-5" vertex="1">
          <mxGeometry x="45" y="80" width="10" height="360" as="geometry" />
        </mxCell>
        <mxCell id="XEL9NCqzSd4EVeQSOwBq-5" value="" style="points=[];perimeter=orthogonalPerimeter;rounded=0;shadow=0;strokeWidth=1;" vertex="1" parent="3nuBFxr9cyL0pnOWT2aG-5">
          <mxGeometry x="40" y="150" width="10" height="80" as="geometry" />
        </mxCell>
        <mxCell id="XEL9NCqzSd4EVeQSOwBq-13" value="" style="points=[];perimeter=orthogonalPerimeter;rounded=0;shadow=0;strokeWidth=1;" vertex="1" parent="3nuBFxr9cyL0pnOWT2aG-5">
          <mxGeometry x="40" y="270" width="10" height="80" as="geometry" />
        </mxCell>
        <mxCell id="3nuBFxr9cyL0pnOWT2aG-7" value="checkName() (false)" style="verticalAlign=bottom;endArrow=open;dashed=1;endSize=8;shadow=0;strokeWidth=1;entryX=0.74;entryY=0.863;entryDx=0;entryDy=0;entryPerimeter=0;" parent="1" target="XEL9NCqzSd4EVeQSOwBq-2" edge="1">
          <mxGeometry x="0.0403" relative="1" as="geometry">
            <mxPoint x="275" y="236" as="targetPoint" />
            <mxPoint x="480" y="300" as="sourcePoint" />
            <Array as="points">
              <mxPoint x="360" y="299" />
            </Array>
            <mxPoint as="offset" />
          </mxGeometry>
        </mxCell>
        <mxCell id="3nuBFxr9cyL0pnOWT2aG-8" value="connect" style="verticalAlign=bottom;endArrow=block;entryX=0;entryY=0;shadow=0;strokeWidth=1;" parent="1" source="3nuBFxr9cyL0pnOWT2aG-2" target="3nuBFxr9cyL0pnOWT2aG-6" edge="1">
          <mxGeometry relative="1" as="geometry">
            <mxPoint x="275" y="160" as="sourcePoint" />
          </mxGeometry>
        </mxCell>
        <mxCell id="3nuBFxr9cyL0pnOWT2aG-9" value="socket &#xa;accept " style="verticalAlign=bottom;endArrow=block;shadow=0;strokeWidth=1;" parent="1" source="3nuBFxr9cyL0pnOWT2aG-6" edge="1">
          <mxGeometry x="0.0164" relative="1" as="geometry">
            <mxPoint x="240" y="200" as="sourcePoint" />
            <mxPoint x="170" y="200" as="targetPoint" />
            <mxPoint as="offset" />
          </mxGeometry>
        </mxCell>
        <mxCell id="XEL9NCqzSd4EVeQSOwBq-4" value="login()" style="verticalAlign=bottom;endArrow=block;shadow=0;strokeWidth=1;startArrow=none;" edge="1" parent="1" source="XEL9NCqzSd4EVeQSOwBq-2">
          <mxGeometry relative="1" as="geometry">
            <mxPoint x="170" y="240" as="sourcePoint" />
            <mxPoint x="480" y="240" as="targetPoint" />
          </mxGeometry>
        </mxCell>
        <mxCell id="XEL9NCqzSd4EVeQSOwBq-14" value="checkName() (true)" style="verticalAlign=bottom;endArrow=open;dashed=1;endSize=8;shadow=0;strokeWidth=1;entryX=0.74;entryY=0.863;entryDx=0;entryDy=0;entryPerimeter=0;" edge="1" parent="1" target="XEL9NCqzSd4EVeQSOwBq-11">
          <mxGeometry x="0.0403" relative="1" as="geometry">
            <mxPoint x="271.4" y="356" as="targetPoint" />
            <mxPoint x="476.4" y="420" as="sourcePoint" />
            <Array as="points">
              <mxPoint x="356.4" y="419" />
            </Array>
            <mxPoint as="offset" />
          </mxGeometry>
        </mxCell>
        <mxCell id="XEL9NCqzSd4EVeQSOwBq-15" value="login()" style="verticalAlign=bottom;endArrow=block;shadow=0;strokeWidth=1;" edge="1" parent="1">
          <mxGeometry relative="1" as="geometry">
            <mxPoint x="180" y="360" as="sourcePoint" />
            <mxPoint x="480" y="360" as="targetPoint" />
          </mxGeometry>
        </mxCell>
        <mxCell id="XEL9NCqzSd4EVeQSOwBq-22" value="" style="shape=umlLifeline;participant=umlActor;perimeter=lifelinePerimeter;whiteSpace=wrap;html=1;container=1;collapsible=0;recursiveResize=0;verticalAlign=top;spacingTop=36;outlineConnect=0;" vertex="1" parent="1">
          <mxGeometry x="30" y="80" width="20" height="530" as="geometry" />
        </mxCell>
        <mxCell id="XEL9NCqzSd4EVeQSOwBq-42" value="" style="html=1;points=[];perimeter=orthogonalPerimeter;" vertex="1" parent="XEL9NCqzSd4EVeQSOwBq-22">
          <mxGeometry x="5" y="60" width="10" height="380" as="geometry" />
        </mxCell>
        <mxCell id="XEL9NCqzSd4EVeQSOwBq-24" value="" style="verticalAlign=bottom;endArrow=none;shadow=0;strokeWidth=1;" edge="1" parent="1" target="XEL9NCqzSd4EVeQSOwBq-2">
          <mxGeometry relative="1" as="geometry">
            <mxPoint x="170" y="240" as="sourcePoint" />
            <mxPoint x="480" y="240" as="targetPoint" />
          </mxGeometry>
        </mxCell>
        <mxCell id="XEL9NCqzSd4EVeQSOwBq-41" value="waitingUI" style="html=1;verticalAlign=bottom;endArrow=open;dashed=1;endSize=8;rounded=0;" edge="1" parent="1">
          <mxGeometry x="-0.0041" relative="1" as="geometry">
            <mxPoint x="160" y="470" as="sourcePoint" />
            <mxPoint x="40" y="470" as="targetPoint" />
            <mxPoint as="offset" />
          </mxGeometry>
        </mxCell>
      </root>
    </mxGraphModel>
  </diagram>
</mxfile>
